<svg xmlns="http://www.w3.org/2000/svg" width="38" height="38">
  <path d="M28.657 6.509h2.072a3.465 3.465 0 0 1 3.465 3.466v20.753a3.464 3.464 0 0 1-3.465 3.466H7.205a3.465 3.465 0 0 1-3.465-3.466V9.974a3.464 3.464 0 0 1 3.465-3.465h2.072V5.124a1.385 1.385 0 1 1 2.769 0v1.385h2.769V5.124a1.385 1.385 0 1 1 2.769 0v1.385h2.769V5.124a1.385 1.385 0 1 1 2.769 0v1.385h2.769V5.124a1.385 1.385 0 1 1 2.769 0v1.385zm0 2.769v1.383a1.385 1.385 0 0 1-2.769 0V9.277H23.12v1.384a1.385 1.385 0 0 1-2.769 0V9.277h-2.768v1.384a1.385 1.385 0 0 1-2.769 0V9.277h-2.768v1.384a1.385 1.385 0 0 1-2.769 0V9.277H7.205a.7.7 0 0 0-.7.7v20.751a.7.7 0 0 0 .7.7h23.524a.7.7 0 0 0 .7-.7V9.974a.7.7 0 0 0-.7-.7zm-18 9a1.385 1.385 0 1 1 0-2.769h14.539a1.385 1.385 0 1 1 0 2.769zm0 4.845a1.385 1.385 0 1 1 0-2.769h16.616a1.385 1.385 0 0 1 0 2.769zm0 4.845a1.385 1.385 0 1 1 0-2.769h9.69a1.385 1.385 0 0 1 0 2.769z" fill="#959dad" />
</svg>
