<svg xmlns="http://www.w3.org/2000/svg" width="21.107" height="22.503">
  <path d="M15.831 2.046h2.875a2.485 2.485 0 012.4 2.561v15.335a2.484 2.484 0 01-2.4 2.561H2.4A2.485 2.485 0 010 19.942V4.606a2.484 2.484 0 012.4-2.56h2.877V1.023a.961.961 0 111.919 0v1.023h6.716V1.023a.961.961 0 111.919 0zm0 2.046v1.022a.961.961 0 11-1.919 0V4.091H7.2v1.023a.961.961 0 11-1.919 0V4.091H2.4a.5.5 0 00-.483.515v15.336a.5.5 0 00.483.515h16.3a.5.5 0 00.483-.515V4.606a.5.5 0 00-.483-.515zm-5.277 8.183a1.537 1.537 0 111.439-1.534 1.489 1.489 0 01-1.439 1.533zm5.277 0a1.537 1.537 0 111.439-1.535 1.489 1.489 0 01-1.439 1.534zM5.277 17.9a1.537 1.537 0 010-3.069 1.537 1.537 0 010 3.069zm5.277 0a1.537 1.537 0 111.439-1.534 1.489 1.489 0 01-1.439 1.534z" fill="#3497fd" />
</svg>
