<svg xmlns="http://www.w3.org/2000/svg" width="29.634" height="29.634">
  <path d="M12.123 28.287a1.347 1.347 0 0 1-1.347 1.347H3.363A3.363 3.363 0 0 1 0 26.262v-11.45a6.284 6.284 0 0 1 2.014-4.35L13.944.321a1.347 1.347 0 0 1 1.744 0L27.62 10.462a6.282 6.282 0 0 1 2.014 4.351v11.45a3.366 3.366 0 0 1-3.368 3.372h-7.408a1.347 1.347 0 0 1-1.347-1.347v-8.083h-5.388zm14.143-1.347a.672.672 0 0 0 .674-.678v-11.45a3.646 3.646 0 0 0-1.064-2.3l-11.059-9.4-11.059 9.4a3.658 3.658 0 0 0-1.064 2.3v11.45a.669.669 0 0 0 .669.678h6.066v-8.082a1.347 1.347 0 0 1 1.347-1.347h8.082a1.347 1.347 0 0 1 1.347 1.347v8.082z" fill="#959dad" />
</svg>
