<svg xmlns="http://www.w3.org/2000/svg" width="38" height="38">
  <path fill="none" d="M0 0h38v38H0z" />
  <path d="M19.2 19.2a7.6 7.6 0 1 1 7.6-7.6 7.6 7.6 0 0 1-7.6 7.6zm0-2.764a4.836 4.836 0 1 0-4.836-4.836 4.836 4.836 0 0 0 4.836 4.836zm14.383 9.786a8.9 8.9 0 0 1 .56 2.292q.154 1.059.238 2.126l.016.207v.1A3.455 3.455 0 0 1 30.95 34.4H7.45A3.455 3.455 0 0 1 4 30.945v-.1l.016-.207q.089-1.066.238-2.126a8.9 8.9 0 0 1 .56-2.292c1.062-2.306 8.88-5.641 14.383-5.641s13.324 3.338 14.386 5.643zm-2.651 1.053a7.112 7.112 0 0 0-.812-.592 20.084 20.084 0 0 0-2.894-1.5 21.317 21.317 0 0 0-8.026-1.838 21.32 21.32 0 0 0-8.026 1.842 20.083 20.083 0 0 0-2.894 1.5 7.174 7.174 0 0 0-.812.592 2.1 2.1 0 0 0-.164.158 8.632 8.632 0 0 0-.312 1.483 30.882 30.882 0 0 0-.228 2.065.691.691 0 0 0 .686.654h23.5a.691.691 0 0 0 .686-.654c-.01-.135-.028-.343-.053-.6q-.07-.735-.175-1.465a8.632 8.632 0 0 0-.312-1.483 1.965 1.965 0 0 0-.164-.162z" fill="#959dad" />
</svg>
