<svg xmlns="http://www.w3.org/2000/svg" width="18.176" height="24.238">
  <path d="M16.965.153l-1.818 2.121L12.572.153a.753.753 0 00-.909 0L9.088 2.274 6.513.153a.753.753 0 00-.913 0L3.029 2.274 1.212.153A.757.757 0 000 .759v22.72a.757.757 0 001.212.606l1.818-2.121 2.57 2.121a.753.753 0 00.909 0l2.575-2.121 2.575 2.121a.753.753 0 00.909 0l2.575-2.121 1.818 2.121a.758.758 0 001.212-.606V.759a.757.757 0 00-1.208-.606zm-1.818 16.889a.38.38 0 01-.379.379H3.408a.38.38 0 01-.379-.379v-.757a.38.38 0 01.379-.379h11.36a.38.38 0 01.379.379zm0-4.544a.38.38 0 01-.379.379H3.408a.38.38 0 01-.379-.379v-.757a.38.38 0 01.379-.379h11.36a.38.38 0 01.379.379zm0-4.544a.38.38 0 01-.379.379H3.408a.38.38 0 01-.379-.379v-.758a.38.38 0 01.379-.379h11.36a.38.38 0 01.379.379z" fill="#3497fd" />
</svg>
